<svg width="34" height="34" viewBox="0 0 34 34" fill="none" xmlns="http://www.w3.org/2000/svg">
<path d="M18.3555 30.7717C10.7492 31.6835 3.84396 26.2565 2.93219 18.6503C2.0204 11.044 7.44735 4.13878 15.0536 3.22699C22.6598 2.31522 29.5651 7.74215 30.4769 15.3484C30.6195 16.5375 30.6071 17.7093 30.4557 18.844C30.2915 20.0749 29.0534 20.7859 27.8412 20.516C26.8106 20.2865 26.2209 19.2111 26.3466 18.1626C26.4369 17.4084 26.4396 16.6315 26.3452 15.8437C25.707 10.5193 20.8733 6.72045 15.5489 7.3587C10.2245 7.99695 6.42565 12.8306 7.0639 18.155C7.62877 22.8673 11.4799 26.3846 16.049 26.6886" stroke="#3CA0C9" stroke-width="2.08065" stroke-linecap="round"/>
<path d="M24.1613 22.4004L23.8546 23.2291C23.4525 24.3158 23.2515 24.8591 22.8551 25.2555C22.4588 25.6519 21.9154 25.8529 20.8288 26.255L20 26.5617L20.8288 26.8683C21.9154 27.2704 22.4588 27.4715 22.8551 27.8679C23.2515 28.2642 23.4525 28.8076 23.8546 29.8942L24.1613 30.723L24.468 29.8942C24.8701 28.8076 25.0711 28.2642 25.4675 27.8679C25.8638 27.4715 26.4071 27.2704 27.4938 26.8683L28.3226 26.5617L27.4938 26.255C26.4071 25.8529 25.8638 25.6519 25.4675 25.2555C25.0711 24.8591 24.8701 24.3158 24.468 23.2291L24.1613 22.4004Z" stroke="#3CA0C9" stroke-width="1.5" stroke-linejoin="round"/>
</svg>
